# xmcd
#
# Track frame offsets:
#	150
#	16925
#	32540
#	48785
#	61172
#	81185
#	97135
#	112867
#	126977
#	141742
#	157275
#	169335
#	192425
#	210310
#	226505
#	238545
#	254285
#	270587
#	286735
#	303245
#	317035
#
# Disc length: 4493
#
# Revision: 2
# Processed by: cddbd v1.5.1PL0 Copyright (c) Steve Scherf et al.
# Submitted via: EasyCDDAExtractor 5.1.0
# Normalized: r1:DSETVAR1
#
DISCID=1e118b15
DTITLE=Various Artist - Grand Strand Gold Volume 2
DYEAR=1900
DGENRE=Beach
TTITLE0=Part Time Party Time Band - Party Time Man
TTITLE1=Robbin Thompson and Steve Bassitt - Sweet Virginia Breeze
TTITLE2=Steve Jarrell and The Sons Of Beach - I've Still Got Sand In My Shoes
TTITLE3=Buddy Skipper - Boogie The Joint
TTITLE4=Clovers - Don't Play That Song
TTITLE5=Bradford and Bell - Mr Dollars, (They Call It)
TTITLE6=Gary Bass and The EBS Allstar Blues Band - Open The Door To Your Heart
TTITLE7=Legendary Dukes - I Still Do
TTITLE8=Tams - Jesus Is Your Ticket To Heaven
TTITLE9=Dynamic Breakers - Take Out Some Insurance
TTITLE10=Swinging Medallions - I Want To Be Your Guy
TTITLE11=Fabulous Kays - Soul'd Out [Original Ver]
TTITLE12=JD Cash and The Bob Kuban Brass - Triple Shot Of Rhythm And Blues
TTITLE13=Shagtime Band - Whatever You Do (Whatever You Say)
TTITLE14=Tams - There Ain't Nothing Like Shaggin
TTITLE15=Ninth Row - Do You Believe (In Love At First Sight)
TTITLE16=Tempests - You Are Always On My Mind
TTITLE17=Swinging Medallions - I'm Gonna Make Her Mine
TTITLE18=Entertainers - Love You Like I Never Loved Before
TTITLE19=Grand Strand - Big Butt Woman
TTITLE20=Embers - I Can See Clearly Now
EXTD=
EXTT0=
EXTT1=
EXTT2=
EXTT3=
EXTT4=
EXTT5=
EXTT6=
EXTT7=
EXTT8=
EXTT9=
EXTT10=
EXTT11=
EXTT12=
EXTT13=
EXTT14=
EXTT15=
EXTT16=
EXTT17=
EXTT18=
EXTT19=
EXTT20=
PLAYORDER=
